<?xml version="1.0" standalone="no"?>
<!DOCTYPE svg PUBLIC "-//W3C//DTD SVG 20010904//EN"
 "http://www.w3.org/TR/2001/REC-SVG-20010904/DTD/svg10.dtd">
<svg version="1.0" xmlns="http://www.w3.org/2000/svg"
 width="900.000000pt" height="1600.000000pt" viewBox="0 0 900.000000 1600.000000"
 preserveAspectRatio="xMidYMid meet">

<g transform="translate(0.000000,1600.000000) scale(0.100000,-0.100000)"
fill="#000000" stroke="none">
<path d="M0 8000 l0 -8000 4500 0 4500 0 0 2820 c0 2810 0 2820 -20 2820 -11
0 -20 5 -20 10 0 6 9 10 19 10 19 0 20 9 21 195 0 189 0 195 -20 195 -22 0
-27 -15 -7 -23 17 -7 -11 -27 -39 -27 -12 0 -27 -6 -34 -14 -17 -22 -36 -9
-54 35 -15 37 -15 42 1 67 10 15 26 36 35 46 20 22 22 32 9 40 -14 9 0 56 18
56 10 0 17 9 17 26 1 14 10 34 19 44 15 17 16 24 5 49 -10 25 -9 36 6 68 9 21
24 46 31 55 11 12 12 21 4 37 -8 13 -8 28 -1 46 6 15 10 130 10 266 0 232 -1
239 -20 239 -16 0 -20 7 -20 30 0 17 -4 30 -10 30 -5 0 -10 7 -10 15 0 8 -4
15 -8 15 -5 0 -14 12 -21 26 -11 24 -15 25 -59 19 -43 -6 -48 -4 -49 14 -1 14
4 21 17 21 10 0 22 5 25 10 3 6 -3 10 -14 10 -11 0 -23 -5 -26 -10 -5 -8 -11
-8 -19 -1 -18 15 -26 3 -26 -37 0 -29 3 -34 20 -29 13 3 20 0 20 -9 0 -9 -11
-13 -37 -11 -28 1 -41 8 -50 26 -18 34 -16 51 7 51 23 0 23 0 10 36 -7 18 -7
30 1 40 8 10 7 19 -5 36 -16 23 -16 23 -10 -9 9 -44 -6 -42 -42 7 -20 28 -37
40 -54 40 -39 0 -89 74 -51 75 8 0 16 6 19 13 2 7 -2 12 -9 11 -8 -1 -22 1
-32 6 -10 4 -23 2 -32 -5 -12 -10 -15 -9 -15 5 0 10 -8 24 -18 31 -14 10 -15
15 -4 26 11 11 12 10 6 -6 -6 -16 -3 -17 24 -11 25 5 33 2 42 -14 6 -12 19
-21 30 -21 11 0 29 -13 42 -30 12 -16 27 -30 34 -30 6 0 17 -7 24 -16 15 -17
87 -54 107 -54 7 0 13 7 13 15 0 8 5 15 10 15 6 0 10 -9 10 -20 0 -11 -4 -20
-9 -20 -16 0 -23 -38 -11 -57 10 -16 11 -16 6 -1 -3 11 3 23 16 32 16 12 19
21 15 45 -7 34 10 53 25 27 8 -15 11 -14 29 8 20 25 25 45 12 47 -35 3 -72 19
-46 19 6 0 15 19 19 43 7 42 7 42 15 13 5 -16 6 -33 3 -38 -3 -4 4 -8 15 -8
16 0 19 6 17 45 -2 44 -28 91 -45 81 -4 -3 -6 6 -3 19 4 22 10 25 43 25 22 0
39 3 39 8 0 4 -18 7 -41 7 -45 -1 -54 6 -64 52 -10 48 -25 50 -25 4 0 -23 -4
-41 -9 -41 -10 0 -21 35 -21 69 0 21 3 23 30 18 28 -6 30 -4 30 23 0 20 -5 30
-15 30 -8 0 -15 7 -15 16 0 11 8 14 28 12 19 -2 26 -8 24 -20 -2 -12 4 -18 18
-18 22 0 26 10 8 28 -8 8 -8 15 1 25 6 8 10 25 9 38 -2 18 2 25 20 27 12 2 22
8 22 13 0 6 -9 8 -19 4 -23 -7 -61 14 -61 32 0 7 -8 13 -17 13 -11 0 -14 3 -7
8 6 4 13 28 16 54 5 40 3 48 -13 53 -11 4 -28 4 -38 0 -25 -8 -35 9 -16 28 15
15 11 47 -6 47 -13 0 -11 28 3 36 6 4 14 2 16 -4 2 -8 8 -8 23 1 24 15 28 107
5 107 -17 0 -28 72 -12 82 6 4 3 10 -9 14 -11 5 -20 3 -23 -4 -5 -15 -48 -16
-57 -2 -4 6 7 13 24 16 31 7 43 24 17 24 -8 0 -18 5 -22 11 -5 8 1 10 20 7 18
-4 26 -1 26 8 0 8 5 14 10 14 6 0 10 -5 10 -11 0 -6 12 -26 26 -45 15 -19 21
-34 14 -34 -6 0 2 -18 19 -39 17 -21 31 -46 31 -54 0 -8 7 -20 15 -27 20 -17
19 -65 -2 -97 -14 -21 -14 -25 -3 -21 8 2 20 15 26 27 l11 22 6 -23 c4 -13 1
-26 -6 -30 -8 -5 -4 -8 11 -8 22 0 23 1 21 135 -1 125 -2 135 -21 141 -15 4
-19 12 -15 31 3 14 -1 27 -8 29 -7 3 -16 26 -20 50 -5 33 -12 47 -27 53 -15 5
-18 10 -9 15 9 6 9 11 0 22 -9 11 -9 14 0 14 7 0 9 5 6 10 -4 6 -15 8 -26 5
-13 -4 -19 -2 -19 9 0 9 5 16 10 16 6 0 10 15 10 34 0 29 -3 33 -20 29 -14 -4
-20 0 -20 13 0 9 -7 26 -17 36 -9 11 -11 18 -5 18 7 0 12 7 12 15 0 8 -7 15
-15 15 -8 0 -15 -7 -15 -15 0 -19 -7 -19 -27 0 -12 13 -13 18 -2 33 7 9 14 19
16 21 1 2 9 -4 18 -12 18 -18 45 -12 45 9 0 22 -27 28 -60 14 -16 -7 -35 -10
-42 -7 -8 4 -5 8 10 12 28 9 28 21 1 28 -23 6 -17 27 8 27 11 0 9 5 -8 19 -23
18 -23 20 -6 38 9 11 14 22 11 26 -3 3 3 12 15 19 12 7 21 21 21 32 0 18 -1
18 -19 2 -17 -16 -22 -16 -47 -3 l-27 14 47 14 c45 13 46 14 46 54 1 32 3 36
11 23 5 -10 9 -30 7 -45 -3 -24 1 -28 35 -34 20 -3 47 -15 60 -26 12 -11 28
-18 34 -16 22 8 14 23 -12 23 -16 0 -25 6 -25 15 0 10 -11 15 -35 15 -34 0
-35 1 -35 39 0 22 -6 42 -12 45 -7 3 11 3 40 1 47 -3 53 -2 47 13 -17 42 -18
52 -1 46 9 -3 16 -1 16 5 0 22 20 11 21 -11 0 -22 1 -22 9 -3 12 27 12 37 1
30 -5 -3 -12 3 -16 14 -4 14 -13 18 -38 15 -18 -1 -35 -3 -39 -3 -5 -1 -8 -8
-8 -16 0 -8 -7 -15 -15 -15 -11 0 -15 11 -15 41 0 33 -3 40 -16 35 -8 -3 -13
-2 -10 2 2 4 1 13 -3 20 -4 8 -11 5 -19 -9 -12 -18 -11 -21 7 -26 23 -6 23 -6
25 -46 1 -15 -3 -26 -9 -24 -5 2 -9 11 -7 21 4 24 -25 20 -39 -6 -10 -19 -9
-24 10 -36 30 -20 28 -52 -4 -52 -18 0 -25 5 -25 20 0 22 -16 27 -23 8 -2 -7
-8 -10 -12 -6 -4 4 -2 15 5 23 16 19 16 71 0 91 -7 7 -10 21 -6 29 3 9 0 15
-10 15 -11 0 -14 -5 -9 -17 15 -38 15 -49 0 -68 -16 -20 -16 -20 -10 1 3 11
-1 37 -10 57 -21 50 -19 57 14 57 24 0 29 4 29 25 0 29 -4 30 -24 10 -9 -8
-23 -15 -32 -14 -11 0 -12 2 -4 6 6 2 9 9 6 14 -6 11 32 53 55 60 11 4 10 8
-3 22 -15 15 -15 17 -2 17 9 0 16 7 16 15 0 8 5 15 11 15 6 0 9 6 6 13 -4 10
5 13 29 13 22 -1 34 -6 34 -15 0 -8 -6 -11 -15 -7 -10 4 -15 -1 -15 -14 0 -11
6 -20 14 -20 7 0 19 -7 26 -15 15 -18 25 -13 44 27 19 37 19 38 6 38 -5 0 -10
-6 -10 -13 0 -8 -11 -19 -25 -25 -20 -9 -25 -9 -25 2 0 7 7 19 15 26 20 17 19
40 -2 56 -17 13 -17 13 0 14 9 0 17 5 17 10 0 6 6 10 14 10 8 0 16 7 20 15 3
8 14 15 24 15 26 0 33 9 20 29 -14 23 13 67 46 75 24 6 51 46 44 66 -2 7 -64
-47 -138 -119 -74 -72 -139 -131 -145 -131 -5 -1 -26 -21 -45 -45 -30 -37 -82
-75 -104 -75 -19 0 -1 38 27 57 17 12 48 43 67 67 19 25 39 45 44 46 5 0 23
15 40 34 34 37 139 145 156 161 55 52 80 114 48 116 -7 0 1 5 18 10 31 9 31 9
32 84 1 67 -1 75 -18 75 -10 0 -21 6 -23 13 -3 7 -6 5 -6 -5 -1 -12 -9 -18
-25 -18 -30 0 -44 -48 -18 -67 14 -11 12 -13 -11 -13 -15 0 -30 -7 -33 -15 -4
-8 -15 -15 -25 -15 -12 0 -19 -7 -19 -19 0 -16 6 -19 33 -17 17 2 21 1 9 -1
-23 -4 -23 -5 -5 -18 14 -11 16 -16 6 -26 -10 -10 -16 -9 -26 6 -8 10 -19 15
-25 11 -12 -7 -13 -1 -16 64 -1 19 -8 26 -31 30 -20 3 -34 14 -43 33 -12 24
-18 28 -40 22 -38 -9 -47 -20 -50 -56 -1 -18 -7 -38 -13 -45 -6 -7 -8 -18 -5
-23 8 -12 -22 -87 -30 -78 -4 3 -14 46 -23 94 l-16 88 -63 -3 c-67 -4 -67 -4
-52 48 13 45 24 150 15 150 -7 0 -28 -47 -60 -135 -27 -74 -41 -82 -163 -91
l-93 -7 26 39 c14 21 30 41 34 44 4 3 17 22 30 42 19 32 20 40 10 60 -11 20
-14 21 -17 6 -4 -22 -22 -24 -22 -2 0 11 -5 14 -17 9 -42 -17 -95 -26 -193
-30 -267 -13 -313 -30 -345 -124 -22 -67 -15 -109 52 -311 45 -139 77 -268
108 -435 3 -16 14 -64 26 -105 11 -41 24 -94 29 -118 5 -23 13 -50 18 -60 5
-9 13 -34 16 -56 4 -21 11 -46 16 -55 16 -30 90 -269 90 -290 0 -11 4 -22 9
-25 8 -5 26 -82 22 -99 0 -4 6 -21 15 -38 8 -17 18 -62 21 -100 3 -38 9 -72
14 -75 4 -2 5 -20 2 -39 -3 -19 -2 -35 3 -35 11 0 1 -157 -14 -233 -5 -27 -7
-57 -5 -68 3 -10 0 -26 -7 -34 -8 -9 -10 -28 -6 -50 6 -31 4 -35 -19 -41 -44
-11 -49 5 -37 108 26 214 23 377 -8 508 -6 25 -15 66 -20 93 -5 26 -13 62 -19
80 -22 68 -59 195 -76 257 -10 36 -30 106 -45 155 -31 99 -54 200 -95 405 -32
164 -67 305 -106 426 -37 118 -39 207 -5 279 13 28 35 59 51 69 30 20 113 48
195 66 30 6 74 20 97 31 24 10 52 19 64 19 12 0 48 7 82 16 33 8 68 13 77 11
38 -10 51 11 46 72 -3 32 -11 71 -18 85 -10 22 -9 29 2 36 15 9 173 34 203 32
10 0 30 3 44 9 22 8 24 14 23 67 -3 103 -3 102 24 89 13 -7 22 -15 19 -20 -2
-4 -6 -26 -7 -48 -2 -23 -7 -44 -12 -48 -5 -3 -9 -43 -9 -89 0 -63 3 -79 11
-67 6 9 14 32 18 53 9 61 23 72 106 83 41 6 95 8 119 5 25 -3 42 -3 39 0 -4 3
-2 19 4 34 9 28 33 31 50 7 3 -6 9 20 13 56 11 99 39 111 64 27 l14 -45 12 29
c8 19 14 24 17 15 4 -12 7 -12 21 0 13 10 17 31 17 92 0 44 -2 79 -5 79 -2 0
-15 -11 -28 -24 -25 -25 -102 -54 -113 -43 -11 11 7 45 34 63 15 10 45 17 69
17 l43 0 0 53 c0 37 -4 54 -15 58 -8 3 -15 11 -15 19 0 7 -5 18 -12 25 -12 12
-16 25 -25 78 -4 27 0 34 31 52 34 20 36 24 36 73 0 46 -2 51 -20 46 -11 -3
-18 -1 -14 4 3 5 12 9 20 9 12 0 14 312 14 2325 l0 2325 -4500 0 -4500 0 0
-8000z m5565 5310 c3 -5 1 -10 -4 -10 -6 0 -11 5 -11 10 0 6 2 10 4 10 3 0 8
-4 11 -10z m456 -109 c17 -10 26 -21 21 -25 -12 -7 -72 22 -72 35 0 14 16 11
51 -10z m-551 -66 c0 -8 -4 -15 -10 -15 -5 0 -7 7 -4 15 4 8 8 15 10 15 2 0 4
-7 4 -15z m607 -186 c2 -20 -13 -24 -35 -11 -18 12 -4 41 17 35 9 -2 17 -13
18 -24z m-6 -106 l24 -26 -27 19 c-15 10 -28 22 -28 27 0 12 5 8 31 -20z
m-133 -35 c14 -14 16 -28 2 -28 -5 0 -14 9 -20 20 -12 22 -1 27 18 8z m181
-70 c-2 -13 0 -29 4 -36 9 -14 -16 -28 -33 -17 -13 8 -13 35 0 35 14 0 12 27
-2 33 -7 3 -3 6 10 6 19 1 23 -4 21 -21z m-146 -10 c28 -14 33 -23 18 -33 -5
-3 -22 6 -37 20 -29 27 -23 32 19 13z m1007 -13 c0 -28 -15 -34 -24 -9 -10 25
-7 34 9 34 9 0 15 -9 15 -25z m-1255 5 c3 -5 1 -10 -4 -10 -6 0 -11 5 -11 10
0 6 2 10 4 10 3 0 8 -4 11 -10z m225 -160 c0 -5 7 -10 15 -10 8 0 15 -5 15
-11 0 -6 -7 -8 -16 -5 -9 3 -19 6 -24 6 -4 0 -10 7 -14 15 -3 9 0 15 9 15 8 0
15 -4 15 -10z m-309 -199 c-8 -5 -21 -7 -29 -3 -12 4 -12 7 4 19 12 9 21 10
28 3 8 -8 7 -13 -3 -19z m534 -151 c-3 -5 -17 -10 -31 -10 -13 0 -24 5 -24 10
0 6 14 10 31 10 17 0 28 -4 24 -10z m43 -209 c3 -10 -6 -12 -39 -7 -61 9 -70
24 -13 22 28 -2 50 -8 52 -15z m-568 -99 c0 -11 -22 -32 -32 -32 -5 0 -4 9 2
20 11 20 30 28 30 12z m-1713 -175 c10 4 24 -3 38 -21 16 -20 31 -27 60 -28
22 -1 41 4 43 10 6 18 42 14 42 -4 0 -11 -6 -14 -20 -9 -14 5 -20 2 -20 -10 0
-21 30 -31 41 -14 8 12 11 11 22 -2 9 -12 16 -14 29 -5 14 8 21 6 32 -9 14
-19 15 -19 27 8 14 32 39 36 46 7 4 -15 12 -20 32 -18 24 3 26 0 23 -30 -2
-27 1 -32 15 -30 10 2 17 -2 15 -9 -4 -25 16 -12 22 13 6 21 10 24 19 15 9 -9
8 -16 -1 -32 -8 -12 -9 -18 -4 -15 5 3 15 -1 22 -9 13 -15 14 -14 -35 -30 -8
-2 -15 -14 -15 -26 0 -15 4 -19 16 -15 21 8 45 -11 37 -30 -3 -9 2 -14 16 -14
16 0 21 -6 21 -24 0 -29 -18 -44 -26 -22 -9 23 -23 19 -34 -9 -5 -14 -16 -25
-25 -25 -20 0 -19 10 2 26 10 7 15 16 11 20 -4 4 -15 1 -23 -6 -12 -10 -19
-10 -28 -1 -15 15 4 47 26 43 30 -5 27 16 -4 27 -22 7 -29 15 -25 26 3 8 3 22
0 30 -5 13 -8 13 -21 -1 -8 -8 -12 -21 -9 -29 6 -17 -9 -20 -27 -5 -46 39 -61
50 -69 50 -13 0 -10 -8 14 -32 14 -14 18 -23 10 -26 -16 -5 -15 -39 1 -45 6
-2 9 -8 4 -13 -4 -4 -14 2 -23 14 -16 23 -54 30 -54 11 0 -8 -4 -8 -12 -2 -7
6 -21 13 -31 16 -16 6 -16 5 -1 -18 14 -22 14 -26 -8 -55 -22 -31 -23 -31 -26
-9 -2 13 1 25 7 27 31 10 3 18 -64 18 -76 -1 -89 -7 -57 -25 14 -9 10 -10 -18
-10 -48 1 -120 -12 -120 -22 0 -4 5 -20 11 -36 15 -38 18 -72 8 -79 -5 -3 -9
10 -9 29 0 40 -30 56 -56 30 -18 -18 -39 -4 -39 25 0 12 -8 17 -32 17 -28 0
-32 3 -35 33 -2 18 0 35 4 38 4 3 8 -4 8 -15 0 -12 5 -21 10 -21 6 0 10 9 10
19 0 25 17 36 34 22 17 -14 29 -2 15 16 -9 10 -8 13 2 13 11 0 11 2 0 9 -10 7
-19 4 -27 -7 -7 -9 -16 -14 -20 -10 -4 4 -13 3 -21 -3 -8 -7 -13 -8 -13 -1 0
20 -32 21 -53 1 -12 -11 -23 -15 -25 -9 -2 5 -22 13 -44 16 l-40 7 33 14 c18
7 39 11 46 9 7 -3 19 7 28 24 14 27 5 44 -10 20 -11 -18 -32 -11 -38 12 -8 28
-2 34 18 18 8 -7 30 -10 50 -8 19 2 35 0 35 -5 0 -5 6 -7 13 -4 6 2 17 -3 24
-12 10 -13 15 -14 32 -3 29 17 33 15 19 -8 -14 -22 -12 -25 22 -35 22 -7 24
-6 11 9 -11 13 -11 20 -3 28 19 19 14 28 -13 28 -35 0 -52 34 -25 53 20 14 20
15 -17 30 -36 15 -36 16 -10 16 15 1 27 -3 27 -8 0 -5 10 -13 22 -17 l22 -7
-22 -17 c-32 -27 -27 -36 18 -32 39 4 50 14 30 27 -17 10 -11 25 10 25 11 0
20 5 20 10 0 6 14 10 30 10 29 0 43 24 19 32 -8 3 -9 18 -4 48 4 25 10 40 12
33 2 -7 11 -9 20 -6z m98 3 c3 -5 -1 -10 -9 -10 -9 0 -16 5 -16 10 0 6 4 10 9
10 6 0 13 -4 16 -10z m-270 -10 c3 -5 -1 -10 -9 -10 -9 0 -16 5 -16 10 0 6 4
10 9 10 6 0 13 -4 16 -10z m2375 -4 c0 -8 -4 -18 -10 -21 -5 -3 -10 3 -10 14
0 12 5 21 10 21 6 0 10 -6 10 -14z m-2414 -36 c9 0 12 -4 9 -10 -12 -19 -35
-10 -34 13 0 12 3 16 6 10 2 -7 11 -13 19 -13z m514 6 c0 -2 -7 -6 -15 -10 -8
-3 -15 -1 -15 4 0 6 7 10 15 10 8 0 15 -2 15 -4z m-585 -46 c3 -5 -3 -10 -15
-10 -12 0 -18 5 -15 10 3 6 10 10 15 10 5 0 12 -4 15 -10z m-65 -14 c0 -2 -7
-6 -15 -10 -8 -3 -15 -1 -15 4 0 6 7 10 15 10 8 0 15 -2 15 -4z m-54 -39 c16
6 17 -2 4 -32 -8 -18 -9 -18 -9 -2 -1 10 -5 15 -11 12 -6 -3 -10 4 -9 17 0 13
3 18 5 11 3 -7 12 -9 20 -6z m114 -2 c0 -8 -9 -15 -20 -15 -11 0 -20 7 -20 15
0 8 9 15 20 15 11 0 20 -7 20 -15z m-163 -72 c-9 -9 -20 -13 -24 -9 -4 4 -1
11 7 16 25 16 35 11 17 -7z m37 -9 c18 -7 12 -24 -10 -24 -8 0 -14 7 -14 15 0
17 2 18 24 9z m936 -9 c0 -7 8 -18 17 -24 10 -5 15 -12 12 -15 -9 -9 -60 34
-54 45 9 14 25 11 25 -6z m84 -40 c3 -8 1 -15 -4 -15 -6 0 -10 7 -10 15 0 8 2
15 4 15 2 0 6 -7 10 -15z m-273 -25 c24 -14 25 -30 0 -30 -10 0 -21 9 -24 20
-6 23 -3 24 24 10z m404 -30 c5 -30 11 -40 26 -40 11 0 19 7 19 16 0 8 5 12
10 9 6 -3 10 -19 10 -34 0 -20 8 -34 27 -46 25 -17 27 -17 40 1 12 16 15 17
23 4 5 -8 10 -18 10 -22 0 -5 9 -8 20 -8 13 0 20 -7 20 -19 0 -14 10 -21 36
-26 34 -6 44 -11 79 -42 7 -7 18 -13 23 -13 16 0 102 -51 102 -61 0 -5 11 -4
26 1 43 17 78 12 93 -12 13 -20 14 -21 26 -4 10 13 18 15 32 8 10 -6 32 -11
48 -13 17 -2 35 -7 42 -12 7 -5 33 -9 59 -9 62 0 94 -13 94 -38 0 -22 20 -26
51 -10 15 8 19 7 19 -4 0 -14 43 -27 88 -26 12 0 22 -4 22 -9 0 -6 18 -8 40
-6 30 3 40 0 40 -11 0 -8 9 -14 20 -14 15 0 20 -7 20 -25 0 -20 5 -25 23 -25
28 0 77 -51 77 -80 0 -11 9 -29 20 -40 13 -13 20 -33 20 -62 0 -66 4 -88 13
-88 5 0 6 -15 2 -32 -4 -24 -3 -29 4 -18 7 10 9 -7 9 -55 -2 -67 8 -172 18
-206 2 -9 -1 -19 -8 -22 -16 -5 -14 -146 3 -327 12 -131 15 -596 4 -683 -4
-31 -11 -60 -16 -63 -5 -3 -9 -16 -9 -29 0 -13 -4 -26 -10 -30 -5 -3 -9 -18
-10 -33 -1 -61 -8 -104 -17 -110 -10 -7 -12 -18 -14 -69 -2 -37 -43 -204 -69
-276 -17 -47 -18 -62 -9 -74 10 -12 10 -16 -2 -24 -8 -5 -20 -9 -27 -9 -7 0
-10 -4 -7 -10 3 -5 1 -10 -4 -10 -6 0 -11 -9 -11 -20 0 -11 5 -20 10 -20 6 0
10 -9 10 -20 0 -21 -15 -27 -25 -10 -10 16 -25 1 -25 -24 0 -14 -10 -30 -25
-40 -29 -19 -32 -42 -8 -68 22 -25 8 -36 -17 -13 -23 21 -36 13 -42 -25 -2
-14 -9 -24 -15 -23 -7 2 -10 -3 -7 -11 3 -7 -7 -21 -21 -30 -22 -14 -26 -24
-23 -54 2 -22 8 -36 15 -35 7 2 10 -4 7 -12 -4 -8 -12 -15 -20 -15 -8 0 -14
-9 -14 -20 0 -11 -4 -20 -9 -20 -5 0 -11 -12 -13 -27 -2 -20 -9 -29 -25 -31
-21 -3 -28 -13 -24 -34 0 -5 -4 -8 -9 -8 -6 0 -10 -9 -10 -19 0 -29 -17 -35
-32 -11 -19 29 -28 25 -26 -12 2 -26 -1 -33 -14 -32 -21 2 -21 3 -8 -31 7 -18
15 -25 25 -21 8 3 15 2 15 -2 0 -14 -24 -32 -42 -32 -11 0 -18 -7 -18 -20 0
-13 -7 -20 -20 -20 -13 0 -20 -7 -20 -20 0 -11 -6 -20 -14 -20 -9 0 -15 -14
-18 -39 -2 -22 -1 -38 3 -35 3 2 4 -7 2 -20 -4 -21 -8 -23 -34 -16 -23 7 -29
5 -34 -10 -3 -10 -5 -22 -4 -26 5 -27 -4 -43 -23 -46 -17 -2 -22 -9 -21 -26 2
-12 -2 -22 -7 -22 -6 0 -10 -11 -10 -24 0 -15 -7 -26 -21 -29 -28 -7 -36 19
-14 43 10 11 14 20 8 20 -5 0 -18 -9 -28 -21 -16 -17 -17 -24 -7 -52 8 -20 8
-35 2 -41 -7 -7 -10 -4 -10 7 0 9 -7 17 -15 17 -19 0 -20 -26 -1 -33 15 -6 29
-47 15 -47 -5 0 -15 11 -21 25 -6 14 -15 25 -21 25 -5 0 -7 7 -4 15 6 14 -48
127 -64 133 -15 6 -10 27 11 45 25 21 34 22 27 2 -8 -20 10 -29 26 -13 31 34
36 56 27 112 -5 30 -14 64 -19 75 -6 11 -11 33 -11 49 0 16 -5 43 -11 60 -6
17 -9 43 -7 59 l4 28 12 -27 c6 -16 18 -28 27 -28 12 0 13 4 3 28 -28 65 -63
107 -93 110 -33 4 -91 52 -75 62 6 4 3 13 -9 24 -19 17 -19 17 -14 -3 7 -27
-8 -27 -32 -1 -19 21 -45 27 -45 10 0 -15 -32 -12 -54 5 -28 21 -44 19 -48 -7
-3 -26 -32 -26 -60 -1 -17 15 -18 14 -18 -7 0 -22 -1 -22 -18 -7 -10 10 -21
14 -24 11 -4 -3 -9 4 -13 15 -6 21 -25 29 -25 11 0 -5 5 -10 10 -10 15 0 12
-30 -4 -36 -8 -3 -17 -15 -21 -27 -6 -18 -11 -9 -28 46 -18 54 -25 65 -35 55
-6 -6 -12 -18 -12 -25 0 -7 -9 -13 -20 -13 -11 0 -20 6 -20 14 0 8 -7 17 -16
20 -11 4 -15 14 -11 32 3 20 1 24 -11 19 -10 -4 -29 9 -53 35 -21 22 -45 40
-53 40 -9 0 -16 5 -16 10 0 17 -28 11 -39 -7 -11 -20 -26 -11 -26 15 0 14 -11
17 -55 18 -30 0 -64 4 -75 7 -11 4 -33 0 -49 -8 -36 -19 -77 -20 -70 -2 2 7
-4 21 -15 32 -16 14 -24 15 -34 6 -12 -9 -17 -5 -29 20 -15 30 -15 30 -22 7
-6 -22 -7 -22 -21 -4 -13 17 -13 21 2 31 14 11 14 12 -1 18 -16 7 -16 8 -1 24
16 15 16 18 1 28 -9 7 -16 20 -16 29 0 13 6 15 28 10 15 -3 23 -2 17 3 -13 11
-34 44 -41 65 -3 9 -17 19 -30 22 -29 8 -32 26 -4 26 21 0 28 16 10 22 -17 5
-22 88 -6 88 21 0 27 28 8 39 -14 9 -13 10 10 11 34 0 58 9 58 22 0 6 -11 7
-24 4 -14 -3 -28 -2 -31 4 -3 5 3 10 13 10 11 0 25 7 32 15 7 8 20 15 29 15
14 1 13 3 -3 15 -17 13 -22 12 -47 -2 -22 -13 -32 -14 -40 -6 -17 17 6 43 38
43 15 0 22 4 18 11 -13 20 5 79 23 78 10 0 12 -3 5 -6 -22 -8 -14 -30 9 -29
33 2 35 32 3 40 -18 5 -25 12 -21 21 3 8 1 17 -4 20 -5 3 -14 -11 -21 -30 -15
-41 -43 -49 -33 -10 4 18 1 27 -10 31 -23 9 -20 34 5 34 19 0 19 1 5 16 -20
19 -12 34 18 34 12 0 25 2 28 5 9 10 -12 100 -25 110 -8 6 -12 16 -10 23 5 14
-23 16 -32 2 -7 -12 -25 -4 -25 11 0 5 7 9 15 9 17 0 20 16 5 25 -13 8 -13 55
0 55 6 0 10 9 10 20 0 11 5 20 11 20 5 0 7 5 4 11 -8 13 -30 6 -31 -9 -1 -7
-2 -18 -3 -26 -2 -26 -61 -30 -61 -4 0 6 7 8 15 4 22 -8 19 31 -5 61 -11 14
-20 34 -20 44 0 10 -9 36 -21 58 -21 41 -23 82 -3 88 6 2 16 -7 22 -19 12 -23
12 -23 6 2 -4 14 -11 28 -17 31 -6 5 -6 18 2 39 14 41 14 80 1 80 -5 0 -10 9
-10 20 0 11 5 20 11 20 7 0 9 10 7 25 -3 15 -1 25 6 25 7 0 21 6 31 14 19 14
19 15 -8 27 -26 12 -27 14 -12 25 9 7 18 18 19 26 9 45 21 74 34 84 11 8 12
13 4 18 -14 8 -16 86 -3 86 11 0 21 37 13 45 -11 11 -10 65 0 65 6 0 8 9 5 21
-5 18 -2 20 19 16 26 -5 33 7 9 17 -17 6 -21 66 -5 66 6 0 15 11 20 25 5 14
14 25 20 25 22 0 8 19 -22 29 l-32 12 34 21 c19 12 51 22 70 23 34 0 35 1 33
38 -2 23 1 35 7 32 6 -3 10 -2 10 3 0 20 62 10 84 -13 32 -35 62 -41 69 -13 7
27 -1 38 -13 18 -7 -12 -13 -10 -34 9 -14 13 -23 29 -19 34 4 6 0 8 -10 4 -24
-9 -23 29 1 42 10 5 18 19 19 30 2 19 0 20 -22 5 -24 -15 -24 -15 -12 9 6 14
14 24 16 21 2 -2 10 1 18 8 16 13 14 15 46 -44 15 -27 23 -55 20 -67 -4 -15
-1 -21 11 -21 9 0 16 7 16 15 0 8 5 15 10 15 13 0 13 -27 -1 -36 -6 -3 -8 -17
-4 -31 8 -34 62 -106 70 -93 11 18 25 0 19 -25 -6 -23 16 -49 23 -28 3 7 14 6
34 -4 28 -14 30 -19 24 -49 -4 -25 -2 -36 9 -40 8 -3 17 -12 20 -20 4 -11 2
-12 -13 -4 -29 15 -37 -18 -11 -44 20 -20 20 -20 21 -1 2 32 17 -23 18 -65 1
-27 -6 -42 -29 -63 -16 -16 -30 -35 -30 -43 0 -21 34 -17 55 6 18 20 45 27 45
12 0 -5 -13 -23 -30 -42 -27 -31 -29 -35 -14 -51 15 -17 66 -33 95 -30 25 3
44 -26 29 -44 -9 -11 -10 -15 -1 -15 16 0 41 -25 42 -42 0 -10 2 -10 6 0 9 23
33 13 33 -15 0 -14 3 -23 6 -20 8 8 84 -33 84 -45 0 -4 9 -3 19 4 16 10 25 9
45 -2 14 -7 26 -19 26 -27 0 -7 7 -13 15 -13 9 0 12 6 8 16 -5 14 -2 16 23 10
16 -4 56 -9 89 -11 33 -2 70 -7 83 -10 29 -9 28 3 -3 39 -26 30 -31 51 -17 60
12 7 40 -28 48 -59 3 -14 10 -25 14 -25 14 0 21 51 9 66 -9 11 -7 14 15 14 19
0 25 4 19 13 -4 6 -6 22 -4 35 1 12 -2 22 -8 22 -23 0 -9 20 23 34 41 17 75
63 90 124 7 26 19 48 27 50 20 4 99 -66 99 -88 0 -10 -8 -20 -17 -24 -34 -12
-93 -53 -87 -59 4 -4 12 -3 17 0 6 4 23 8 37 9 14 2 32 12 42 24 21 25 26 25
48 -2 14 -18 21 -20 30 -11 9 8 20 8 41 1 38 -13 59 3 57 46 -1 18 2 38 6 44
3 6 -3 16 -14 22 -11 6 -20 20 -20 32 0 19 -1 20 -18 5 -12 -11 -22 -13 -35
-6 -21 12 -22 35 -1 43 26 10 32 7 72 -34 36 -38 41 -40 66 -29 26 12 35 29
15 29 -6 0 -25 15 -43 33 -74 74 -161 127 -207 127 -15 0 -32 7 -39 15 -7 8
-22 15 -35 15 -12 0 -25 3 -29 8 -4 4 -20 8 -34 10 -55 5 -62 6 -62 14 0 4 -9
8 -20 8 -11 0 -20 5 -20 11 0 6 -9 9 -20 6 -15 -4 -20 0 -20 14 0 16 3 17 19
7 16 -10 23 -9 39 5 10 9 26 17 35 17 21 0 21 9 1 31 -9 10 -22 15 -30 12 -8
-3 -14 0 -14 6 0 15 37 14 43 -1 4 -10 7 -10 18 0 14 13 130 17 142 5 9 -8 48
-14 117 -17 30 -1 62 -5 70 -8 38 -16 85 -28 105 -28 13 0 28 -7 35 -15 7 -8
21 -15 31 -15 10 0 43 -12 74 -27 38 -19 55 -33 56 -48 2 -17 2 -17 6 3 4 21
9 23 38 18 19 -4 36 -2 40 4 6 9 0 18 -32 55 -7 7 -13 17 -13 22 0 20 -197
190 -250 216 -44 21 -67 36 -105 66 -17 14 -31 19 -33 12 -2 -6 -16 -11 -32
-11 -20 0 -29 6 -33 21 -4 14 -10 18 -19 13 -7 -5 -21 -7 -31 -6 -10 2 -25 -2
-32 -8 -12 -10 -17 -7 -26 14 -13 28 -24 33 -35 15 -3 -6 -17 -8 -29 -5 -14 4
-25 1 -28 -7 -4 -9 -8 -9 -15 2 -5 7 -14 11 -20 7 -6 -3 -15 1 -20 11 -9 16
-13 16 -37 3 -24 -13 -30 -12 -57 3 -16 9 -42 17 -58 17 -20 0 -29 6 -34 23
-6 19 -8 20 -19 6 -18 -23 -69 -30 -101 -13 -16 8 -39 14 -52 14 -12 0 -26 5
-29 10 -12 19 -63 11 -79 -12 -9 -12 -16 -17 -16 -11 0 6 -9 9 -20 6 -11 -3
-20 -1 -20 5 0 18 -43 58 -69 65 -18 4 -24 1 -29 -15 -4 -17 -10 -19 -51 -14
-25 3 -40 3 -33 0 6 -3 9 -10 6 -15 -3 -6 -12 -5 -22 3 -10 7 -14 9 -10 4 4
-5 3 -17 -2 -26 -8 -16 -15 -17 -44 -8 -28 9 -40 8 -60 -6 -26 -17 -35 -36
-16 -36 6 0 10 -4 10 -10 0 -18 -18 -11 -25 10 -7 23 -40 27 -52 7 -4 -8 -17
-17 -28 -20 -20 -7 -20 -7 -1 8 11 8 14 15 8 15 -7 0 -12 9 -12 21 0 11 -4 17
-10 14 -5 -3 -10 -15 -10 -25 0 -12 -10 -21 -28 -25 -15 -3 -36 -17 -46 -30
-10 -14 -23 -25 -27 -25 -13 0 -11 28 2 32 9 3 9 10 0 26 -16 30 -41 28 -41
-3 0 -22 -3 -24 -19 -15 -21 11 -37 -2 -26 -20 6 -10 -15 -50 -27 -50 -5 0 -8
12 -8 26 0 14 -4 23 -9 19 -11 -6 -10 -45 1 -45 4 0 8 -4 8 -10 0 -14 -40 -11
-75 6 -16 8 -22 12 -12 9 26 -7 56 28 52 62 -2 15 -4 36 -4 46 -1 15 -4 16
-22 6 -16 -8 -20 -17 -16 -38 3 -15 2 -33 -4 -41 -7 -12 -9 -10 -9 7 0 29 -13
35 -36 18 -16 -12 -17 -17 -6 -34 10 -18 10 -21 -3 -21 -8 0 -15 7 -15 16 0 8
-4 13 -9 10 -4 -3 -6 6 -3 19 3 19 0 25 -14 26 -11 0 -14 3 -6 6 17 7 15 33
-3 33 -9 0 -18 -6 -21 -14 -3 -8 -13 -17 -21 -20 -12 -5 -13 -4 -5 7 17 20 1
30 -19 11 -12 -11 -19 -12 -24 -4 -11 17 3 43 20 36 8 -3 15 -2 15 3 0 5 -9
11 -20 14 -26 7 -26 27 0 34 16 4 18 8 9 19 -6 8 -17 14 -24 14 -14 0 -28 -27
-20 -40 3 -4 -2 -13 -10 -20 -8 -7 -15 -21 -15 -31 0 -11 -5 -19 -11 -19 -6 0
-8 8 -4 18 5 19 -6 48 -35 88 -22 29 -39 37 -54 25 -14 -11 -49 -5 -42 8 3 3
1 22 -4 41 -7 30 -8 32 -9 9 -1 -34 -27 -45 -36 -16 -4 14 -8 17 -12 10 -8
-20 -23 -15 -23 8 0 15 5 19 15 15 8 -3 15 -1 15 4 0 6 7 10 16 10 8 0 12 5 8
11 -4 8 -9 8 -17 0 -26 -26 -38 -12 -31 34 4 32 2 50 -7 62 -15 18 -15 18 36
-3 11 -5 15 1 15 26 l0 33 42 -7 c23 -4 48 -12 55 -17 9 -8 21 -1 48 28 39 43
41 48 20 57 -17 6 -21 36 -4 36 5 0 9 8 8 18 -3 33 1 42 21 42 11 0 20 6 20
13 0 8 4 7 10 -3 5 -8 10 -30 10 -47 0 -35 8 -41 29 -20 11 10 12 9 6 -2 -6
-10 0 -21 17 -35 28 -23 46 -66 29 -66 -6 0 -19 8 -29 18 -10 9 -37 18 -60 20
-39 2 -42 1 -42 -23 0 -29 17 -33 35 -8 8 10 17 13 25 8 11 -7 9 -10 -6 -16
-17 -7 -17 -8 -1 -8 23 -1 33 2 29 12 -1 4 8 2 20 -5 13 -7 27 -12 31 -13 5 0
14 -8 21 -17 7 -10 19 -18 26 -18 45 0 69 -88 33 -116 -17 -13 -17 -15 0 -25
9 -5 14 -15 11 -21 -4 -6 0 -14 7 -19 11 -7 10 -9 -5 -9 -15 0 -16 -3 -6 -15
21 -26 33 -17 27 20 -7 41 13 48 37 14 9 -14 19 -18 28 -13 11 6 11 5 0 -9
-15 -18 -8 -37 12 -37 8 0 19 7 26 15 14 17 50 20 50 5 0 -5 -4 -10 -10 -10
-5 0 -10 -9 -10 -20 0 -30 14 -24 27 10 8 21 19 30 35 31 13 1 6 5 -17 9 -29
5 -33 8 -14 9 15 0 32 8 39 16 7 8 19 15 27 15 11 0 11 -4 2 -21 -7 -13 -7
-19 -1 -15 6 3 14 2 17 -4 11 -18 36 10 30 31 -7 20 18 28 30 9 6 -10 71 -8
82 3 4 4 2 12 -5 19 -8 8 -6 16 9 29 11 10 19 23 18 31 -4 31 1 42 13 30 19
-19 36 -14 54 17 10 16 27 32 38 36 14 4 17 8 8 12 -7 3 -20 -1 -28 -8 -12
-10 -19 -9 -36 9 l-21 21 27 7 c14 3 40 1 56 -6 34 -14 90 -5 90 16 0 19 -38
56 -50 49 -6 -4 -10 -2 -10 4 0 5 15 11 33 13 28 3 32 6 30 31 -1 23 2 27 24
27 24 0 25 2 19 41 -6 37 -5 40 15 37 26 -4 49 -35 34 -46 -14 -10 -18 -39 -6
-46 5 -3 12 4 15 17 3 12 16 33 27 47 l21 25 24 -30 25 -30 -5 43 c-6 53 10
55 19 2z m-1155 -2 l-25 -20 23 -15 c25 -17 29 -38 8 -46 -17 -7 -40 18 -31
33 3 5 -2 10 -14 10 -33 0 -33 17 1 38 45 28 71 28 38 0z m-175 3 c3 -5 1 -12
-5 -16 -5 -3 -10 1 -10 9 0 18 6 21 15 7z m255 -11 c0 -5 -2 -10 -4 -10 -3 0
-8 5 -11 10 -3 6 -1 10 4 10 6 0 11 -4 11 -10z m330 -45 c10 -12 10 -15 -3
-15 -8 0 -17 7 -21 15 -3 8 -2 15 3 15 5 0 14 -7 21 -15z m-470 -15 c0 -5 -6
-10 -14 -10 -8 0 -16 -7 -20 -15 -7 -19 -36 -20 -36 -1 0 7 15 18 33 24 17 5
33 10 35 11 1 1 2 -3 2 -9z m960 -26 c0 -14 -12 -19 -23 -8 -9 9 4 35 14 28 5
-3 9 -12 9 -20z m4550 2 c0 -16 -18 -31 -27 -22 -8 8 5 36 17 36 5 0 10 -6 10
-14z m-5146 -43 c11 -29 -41 -45 -74 -23 -13 9 -13 11 -1 19 8 5 20 7 27 4 6
-2 15 0 19 6 9 16 22 13 29 -6z m176 2 c0 -8 -4 -15 -10 -15 -5 0 -7 7 -4 15
4 8 8 15 10 15 2 0 4 -7 4 -15z m-560 -11 c0 -17 -22 -14 -28 4 -2 7 3 12 12
12 9 0 16 -7 16 -16z m1000 -23 c0 -6 -4 -13 -10 -16 -5 -3 -10 1 -10 9 0 9 5
16 10 16 6 0 10 -4 10 -9z m-163 -56 c3 -42 -7 -45 -24 -8 -17 36 -16 43 5 43
12 0 18 -9 19 -35z m-212 5 c3 -5 1 -10 -4 -10 -6 0 -11 5 -11 10 0 6 2 10 4
10 3 0 8 -4 11 -10z m175 -62 c-1 -30 -3 -38 -9 -28 -8 14 -4 70 5 70 2 0 4
-19 4 -42z m-393 10 c-3 -8 -6 -5 -6 6 -1 11 2 17 5 13 3 -3 4 -12 1 -19z
m346 -5 c-19 -7 -16 -53 2 -53 29 0 15 -19 -22 -29 -54 -15 -61 -13 -34 10 18
15 21 23 13 31 -8 8 -6 16 10 30 12 10 26 18 32 17 6 0 6 -3 -1 -6z m-139 -39
c14 -37 6 -62 -23 -72 -15 -5 -34 -7 -40 -2 -9 5 -5 9 11 14 17 4 20 8 9 15
-11 7 -10 13 4 35 20 30 30 33 39 10z m-119 -34 c3 -5 1 -10 -4 -10 -6 0 -11
5 -11 10 0 6 2 10 4 10 3 0 8 -4 11 -10z m1840 -30 c3 -5 1 -10 -4 -10 -6 0
-11 5 -11 10 0 6 2 10 4 10 3 0 8 -4 11 -10z m-1245 -129 c0 -5 8 -12 18 -15
10 -3 7 -4 -7 -3 -24 2 -44 27 -22 27 6 0 11 -4 11 -9z m-820 -147 c0 -9 -5
-14 -12 -12 -18 6 -21 28 -4 28 9 0 16 -7 16 -16z m25 -44 c3 -5 -1 -10 -10
-10 -9 0 -13 5 -10 10 3 6 8 10 10 10 2 0 7 -4 10 -10z m1942 -236 c-3 -3 -12
-4 -19 -1 -8 3 -5 6 6 6 11 1 17 -2 13 -5z m-2790 -74 c12 0 23 6 26 14 5 13
73 13 137 0 23 -5 24 -7 7 -18 -21 -16 -22 -27 -2 -20 9 4 19 -4 27 -23 16
-38 18 -39 26 -26 5 8 13 9 22 3 12 -7 10 -13 -10 -35 -23 -25 -29 -26 -90
-21 -36 3 -74 5 -85 5 -11 1 -36 1 -55 1 -39 0 -62 16 -42 29 13 8 13 61 -1
61 -10 0 -26 42 -20 53 3 5 13 1 22 -7 10 -9 27 -16 38 -16z m2348 -60 c67
-14 161 -56 169 -75 2 -7 -1 -21 -8 -31 -18 -24 -103 -26 -120 -1 -7 9 -25 17
-38 17 -14 0 -39 7 -54 15 -16 8 -39 15 -51 15 -16 0 -25 8 -29 26 -6 22 -8
24 -16 10 -12 -22 -32 -21 -23 2 4 9 8 23 8 30 0 15 67 12 162 -8z m-92 -135
c14 -36 -54 -84 -75 -53 -11 17 -1 60 19 75 16 12 48 0 56 -22z m1309 2 c32
-30 36 -39 42 -102 8 -90 0 -432 -13 -510 -5 -33 -23 -101 -40 -152 -17 -50
-43 -142 -56 -205 -24 -112 -38 -162 -90 -328 -15 -47 -29 -96 -32 -110 -16
-87 -125 -230 -174 -230 -21 0 -25 29 -10 59 6 10 6 23 1 31 -5 8 -4 22 3 34
6 12 12 37 13 56 1 19 4 53 8 74 5 27 2 44 -8 55 -8 9 -19 33 -24 54 -9 33 -8
41 9 58 10 10 19 27 19 37 0 10 5 23 11 29 8 8 7 16 -2 30 -10 17 -9 23 5 39
10 10 31 41 48 68 28 43 30 49 15 58 -9 5 -17 16 -17 23 0 24 -14 17 -33 -15
-10 -16 -22 -30 -26 -30 -12 0 -22 187 -11 216 13 32 13 165 1 197 -5 13 -10
48 -12 78 -1 30 -6 64 -10 77 -5 12 -9 56 -10 96 -1 73 -1 76 42 135 24 33 49
60 55 60 6 1 31 19 55 41 24 22 52 40 61 40 10 0 22 9 28 20 6 11 15 18 20 15
5 -3 12 1 17 9 7 12 26 19 69 25 5 0 26 -14 46 -32z m-3482 -12 c-7 -8 -16
-15 -21 -15 -13 0 -11 24 3 38 18 18 35 -3 18 -23z m1560 -45 c0 -5 -7 -10
-16 -10 -8 0 -12 5 -9 10 3 6 10 10 16 10 5 0 9 -4 9 -10z m4434 -25 c4 -13 2
-14 -14 -5 -23 13 -26 20 -6 20 8 0 16 -7 20 -15z m-4428 -25 c8 0 14 -9 14
-20 0 -25 -27 -26 -59 -4 -18 13 -20 18 -10 25 8 5 20 7 27 4 8 -3 20 -5 28
-5z m4384 -144 c0 -15 -18 -31 -26 -23 -7 7 7 37 17 37 5 0 9 -6 9 -14z
m-3843 -30 c-5 -16 -36 -19 -53 -5 -10 8 -12 14 -4 19 17 10 61 -1 57 -14z
m3748 -56 c3 -5 -1 -10 -9 -10 -9 0 -16 5 -16 10 0 6 4 10 9 10 6 0 13 -4 16
-10z m-5075 -338 c0 -13 -12 -22 -22 -16 -10 6 -1 24 13 24 5 0 9 -4 9 -8z
m30 -73 c0 -5 -4 -9 -10 -9 -5 0 -10 7 -10 16 0 8 5 12 10 9 6 -3 10 -10 10
-16z m4820 -49 c0 -5 -5 -10 -11 -10 -5 0 -7 5 -4 10 3 6 8 10 11 10 2 0 4 -4
4 -10z m50 -70 c0 -5 -4 -10 -10 -10 -5 0 -10 5 -10 10 0 6 5 10 10 10 6 0 10
-4 10 -10z m-160 -180 c0 -5 -4 -10 -10 -10 -5 0 -10 5 -10 10 0 6 5 10 10 10
6 0 10 -4 10 -10z m-4650 -130 c0 -5 -4 -10 -10 -10 -5 0 -10 5 -10 10 0 6 5
10 10 10 6 0 10 -4 10 -10z m40 -51 c0 -13 -67 -11 -76 3 -5 7 -1 9 13 6 12
-3 27 -2 34 3 14 9 29 3 29 -12z m4720 -24 c0 -8 -4 -15 -9 -15 -13 0 -22 16
-14 24 11 11 23 6 23 -9z m-100 -15 c0 -5 -4 -10 -10 -10 -5 0 -10 5 -10 10 0
6 5 10 10 10 6 0 10 -4 10 -10z m87 -44 c-3 -7 -1 -18 5 -24 13 -13 -4 -23
-21 -13 -15 10 -6 51 11 51 5 0 8 -6 5 -14z m63 -71 c0 -8 4 -15 9 -15 4 0 6
-11 3 -25 -5 -26 -16 -32 -27 -15 -4 6 -1 17 5 25 10 12 9 15 -4 15 -16 0 -21
12 -9 23 11 12 23 8 23 -8z m-137 -22 c-7 -2 -19 -2 -25 0 -7 3 -2 5 12 5 14
0 19 -2 13 -5z m82 -34 c4 -5 4 -22 0 -37 -7 -25 -8 -25 -15 -7 -17 41 -4 76
15 44z m234 -43 c8 -9 8 -16 2 -20 -6 -4 -15 3 -21 14 -12 23 2 27 19 6z m-90
-78 c20 -37 17 -50 -7 -26 -7 7 -12 20 -12 30 0 20 -8 22 -30 8 -9 -5 -19 -5
-27 2 -11 9 -10 14 4 28 23 22 44 9 72 -42z m-164 13 c3 -5 1 -12 -5 -16 -5
-3 -10 1 -10 9 0 18 6 21 15 7z m118 -83 c-2 -4 -14 -2 -26 5 -12 6 -23 12
-24 12 -1 0 -5 14 -9 30 l-7 30 35 -35 c20 -19 34 -38 31 -42z m87 -19 c0 -20
-15 -26 -24 -10 -8 13 4 42 15 35 5 -3 9 -14 9 -25z m-137 -9 c-3 -11 -12 -20
-19 -20 -8 0 -14 9 -14 20 0 13 7 20 19 20 14 0 18 -5 14 -20z m37 -25 c0 -8
-4 -15 -9 -15 -13 0 -22 16 -14 24 11 11 23 6 23 -9z m70 -11 c0 -2 -7 -4 -15
-4 -8 0 -15 4 -15 10 0 5 7 7 15 4 8 -4 15 -8 15 -10z m50 -4 c0 -5 -4 -10
-10 -10 -5 0 -10 5 -10 10 0 6 5 10 10 10 6 0 10 -4 10 -10z m-92 -95 c-10
-22 -13 -23 -20 -10 -11 18 -2 35 17 35 12 0 12 -5 3 -25z m96 -57 c3 -13 1
-27 -5 -33 -7 -7 -8 -4 -4 8 6 13 2 17 -19 17 -42 0 -32 20 15 29 4 0 9 -9 13
-21z m-229 2 c3 -5 1 -10 -4 -10 -6 0 -11 5 -11 10 0 6 2 10 4 10 3 0 8 -4 11
-10z m134 -31 c-8 -5 -21 -8 -29 -8 -13 1 -13 1 0 6 8 3 19 13 24 22 7 12 10
13 14 2 2 -7 -2 -17 -9 -22z m77 -53 c17 -18 18 -26 1 -26 -7 0 -18 9 -25 20
-14 24 2 28 24 6z m-4386 -47 c0 -11 -4 -17 -10 -14 -5 3 -10 13 -10 21 0 8 5
14 10 14 6 0 10 -9 10 -21z m4353 -21 c10 -36 -22 -14 -36 24 -5 15 -4 16 13
6 10 -7 21 -20 23 -30z m84 -180 c-3 -8 -6 -5 -6 6 -1 11 2 17 5 13 3 -3 4
-12 1 -19z m-4259 -2 c-7 -8 -15 -12 -17 -11 -5 6 10 25 20 25 5 0 4 -6 -3
-14z m-448 -6 c0 -5 -7 -10 -16 -10 -8 0 -12 5 -9 10 3 6 10 10 16 10 5 0 9
-4 9 -10z m66 -8 c-3 -5 8 -9 24 -10 16 0 35 -4 42 -8 13 -8 18 -9 71 -12 20
-2 27 -7 27 -23 0 -15 -5 -19 -18 -15 -84 27 -263 19 -347 -14 -11 -5 -41 -11
-68 -13 -44 -4 -50 -2 -87 34 -48 47 -36 60 34 36 24 -8 48 -11 52 -7 5 5 25
5 44 1 24 -5 43 -2 61 8 23 13 29 12 59 -2 40 -20 40 -20 40 -3 0 7 15 18 33
24 17 5 33 10 35 11 2 1 1 -3 -2 -7z m4601 -24 c-3 -8 -6 -5 -6 6 -1 11 2 17
5 13 3 -3 4 -12 1 -19z m-4335 -15 c36 -33 16 -68 -34 -56 -40 10 -67 43 -34
43 7 0 19 7 26 15 16 19 19 19 42 -2z m86 -60 c2 -8 -5 -13 -17 -13 -12 0 -21
6 -21 16 0 18 31 15 38 -3z m-214 -95 c10 0 28 -5 40 -11 11 -7 42 -12 69 -12
29 0 46 -4 43 -11 -2 -6 5 -16 17 -24 15 -9 22 -10 25 -1 2 6 10 11 18 11 8 0
22 4 32 9 79 40 115 52 124 43 6 -6 17 -8 25 -5 9 4 16 -2 20 -16 3 -11 11
-21 17 -21 7 0 19 -16 26 -36 13 -33 17 -35 52 -32 21 2 38 1 38 -3 0 -3 23
-29 50 -57 28 -28 50 -60 50 -70 0 -14 9 -21 30 -25 22 -5 30 -12 30 -27 0
-14 -6 -20 -17 -18 -14 2 -18 -4 -18 -27 0 -20 -5 -29 -13 -27 -8 1 -11 -2 -7
-8 3 -5 -3 -23 -14 -39 -12 -16 -21 -33 -21 -38 0 -4 5 -1 10 7 8 13 10 12 10
-3 0 -15 -6 -17 -36 -11 -27 5 -35 3 -34 -7 6 -44 -1 -57 -32 -62 -22 -3 -37
0 -44 9 -14 18 -24 18 -24 0 0 -8 6 -16 13 -19 6 -2 -3 -7 -21 -11 -31 -7 -32
-9 -28 -47 4 -33 2 -39 -14 -39 -10 0 -21 4 -24 9 -3 5 -24 11 -47 13 -35 3
-42 1 -50 -19 -5 -13 -6 -30 -3 -38 4 -9 0 -15 -10 -15 -10 0 -13 -5 -9 -16 5
-13 2 -15 -16 -9 -12 3 -20 3 -19 -2 1 -4 -1 -18 -6 -31 -5 -15 -2 -27 8 -38
9 -8 16 -19 16 -23 0 -4 16 -13 35 -20 19 -7 35 -16 35 -21 0 -5 3 -15 6 -24
3 -9 2 -16 -4 -16 -5 0 -13 12 -16 26 -6 21 -9 24 -21 14 -12 -10 -20 -9 -39
4 -23 15 -25 14 -31 -4 -4 -11 -15 -20 -26 -20 -21 0 -49 22 -49 38 0 5 -7 15
-15 22 -13 11 -18 10 -29 -5 -15 -21 -36 -12 -36 16 0 12 -7 19 -20 19 -11 0
-20 -7 -20 -15 0 -8 3 -15 8 -15 10 0 36 -60 28 -67 -3 -3 -1 -12 5 -19 6 -7
7 -18 3 -25 -9 -16 -43 28 -44 57 0 11 -7 36 -16 53 -16 32 -16 32 -28 10 -14
-28 -30 -30 -34 -3 -3 18 4 23 33 28 20 4 33 11 29 17 -3 6 -13 8 -21 5 -9 -4
-22 -1 -29 5 -17 14 -34 3 -34 -22 0 -32 -28 -34 -55 -5 -27 30 -30 37 -15 52
6 6 -2 21 -21 42 -30 32 -31 47 -6 47 7 0 13 10 15 23 4 25 24 29 42 7 10 -12
9 -15 -5 -15 -17 0 -17 -1 -2 -18 23 -25 21 -38 -5 -46 -22 -7 -22 -7 -3 -15
16 -7 22 -3 29 20 5 16 15 29 22 29 8 0 14 9 14 20 0 11 -6 20 -14 20 -7 0
-19 6 -25 14 -15 18 -5 101 15 121 8 7 14 18 14 24 0 6 5 11 10 11 15 0 12 30
-4 36 -8 3 -17 15 -20 27 -4 17 -8 19 -18 9 -17 -17 -28 -15 -28 6 0 24 -32
53 -47 44 -19 -12 -124 -6 -132 7 -4 6 -16 9 -27 5 -14 -4 -16 -3 -5 4 9 6 12
20 8 38 -4 16 -4 24 -1 18 2 -6 18 -9 34 -6 22 3 30 11 35 34 7 29 -4 55 -12
31 -8 -21 -20 -15 -19 10 1 13 -5 22 -14 22 -10 0 -14 -8 -13 -22 4 -32 -19
-29 -44 5 l-20 27 23 37 c16 25 29 35 39 32 8 -4 15 -10 15 -15 0 -5 7 -9 15
-9 8 0 15 -4 15 -10 0 -5 5 -10 11 -10 6 0 8 9 4 20 -6 17 -3 19 24 14 24 -5
37 -1 61 20 18 14 38 26 45 26 7 0 16 6 18 13 4 9 8 9 15 -2 8 -11 13 -10 28
7 12 13 26 18 39 14 11 -3 28 -5 39 -4z m-514 -88 c0 -27 -5 -43 -15 -47 -21
-8 -22 -5 -17 45 6 57 32 59 32 2z m1600 3 c0 -25 -1 -26 -20 -8 -21 19 -18
35 6 35 9 0 14 -10 14 -27z m-1496 -37 c-3 -14 -10 -26 -14 -26 -15 0 -20 31
-9 52 15 27 32 9 23 -26z m4906 -26 c0 -5 -7 -10 -15 -10 -8 0 -15 -4 -15 -10
0 -5 7 -10 15 -10 8 0 15 -4 15 -10 0 -15 -26 -12 -40 5 -10 12 -10 18 0 30
14 17 40 20 40 5z m-35 -70 c-3 -5 1 -22 9 -38 15 -28 12 -47 -5 -36 -4 2 -5
12 -2 20 5 13 1 15 -15 9 -23 -7 -25 -3 -16 33 4 12 13 22 21 22 8 0 11 -4 8
-10z m25 -109 c0 -6 -4 -13 -10 -16 -5 -3 -10 1 -10 9 0 9 5 16 10 16 6 0 10
-4 10 -9z m-20 -63 c0 -16 -3 -19 -11 -11 -6 6 -8 16 -5 22 11 17 16 13 16
-11z m-4563 -25 c-3 -3 -11 -2 -17 2 -8 5 -7 11 2 22 12 15 13 14 16 -1 2 -10
1 -20 -1 -23z m4313 -3 c0 -5 -4 -10 -10 -10 -5 0 -10 5 -10 10 0 6 5 10 10
10 6 0 10 -4 10 -10z m-32 -64 c2 -10 -4 -26 -14 -37 -16 -18 -16 -19 7 -28
17 -7 19 -10 7 -10 -10 -1 -22 -10 -28 -21 -6 -11 -18 -20 -26 -20 -13 0 -13
-2 1 -17 16 -15 16 -18 1 -28 -9 -7 -16 -17 -16 -24 0 -6 -4 -11 -10 -11 -13
0 -13 13 1 27 7 7 8 20 4 30 -6 16 -8 16 -16 -4 -4 -13 -13 -23 -19 -23 -11 0
-13 13 -3 24 8 8 12 28 16 73 1 18 5 33 10 33 4 0 13 11 19 25 6 14 15 25 20
25 5 0 6 -6 3 -12 -3 -7 0 -5 7 5 15 20 32 17 36 -7z m22 -36 c0 -5 -4 -10
-10 -10 -5 0 -10 5 -10 10 0 6 5 10 10 10 6 0 10 -4 10 -10z m-3659 -43 c-8
-8 -14 -8 -23 1 -9 9 -8 12 5 12 9 0 17 6 18 13 0 9 2 8 6 -1 3 -8 0 -19 -6
-25z m-61 -15 c0 -14 -11 -21 -26 -15 -21 8 -17 23 6 23 11 0 20 -4 20 -8z
m2860 -2 c0 -5 -4 -10 -10 -10 -5 0 -10 5 -10 10 0 6 5 10 10 10 6 0 10 -4 10
-10z m-2833 -36 c-3 -3 -12 -4 -19 -1 -8 3 -5 6 6 6 11 1 17 -2 13 -5z m2823
-38 c0 -3 -4 -8 -10 -11 -5 -3 -10 -1 -10 4 0 6 5 11 10 11 6 0 10 -2 10 -4z
m1230 -6 c0 -5 -4 -10 -10 -10 -5 0 -10 5 -10 10 0 6 5 10 10 10 6 0 10 -4 10
-10z m-494 -26 c-3 -9 -6 -25 -7 -37 -1 -18 -2 -16 -9 7 -10 31 -6 46 12 46 5
0 7 -7 4 -16z m-4259 -19 c8 -8 13 -20 11 -26 -2 -7 -12 0 -21 15 -19 29 -14
35 10 11z m463 -36 c0 -11 -4 -17 -10 -14 -5 3 -10 13 -10 21 0 8 5 14 10 14
6 0 10 -9 10 -21z m4152 -4 c-2 -14 -8 -25 -13 -25 -5 0 -9 11 -9 25 0 14 6
25 14 25 9 0 12 -8 8 -25z m-1088 -27 c7 -5 5 -8 -5 -8 -22 0 -29 9 -21 28 5
13 6 14 10 1 3 -7 10 -17 16 -21z m750 14 c3 -5 -1 -20 -9 -35 -7 -14 -11 -28
-8 -31 11 -11 12 -70 2 -83 -7 -8 -7 -13 -1 -13 5 0 10 -11 10 -25 0 -14 -6
-25 -12 -24 -22 3 -35 -1 -48 -15 -8 -7 -24 -17 -37 -21 -20 -6 -22 -5 -12 13
6 12 11 30 11 41 0 16 6 21 25 21 l25 0 -21 21 c-29 29 -21 55 16 51 22 -2 26
0 15 7 -11 8 -12 14 -3 33 7 13 15 33 18 46 6 22 20 29 29 14z m-4254 -52 c0
-5 -5 -10 -11 -10 -5 0 -7 5 -4 10 3 6 8 10 11 10 2 0 4 -4 4 -10z m4570 -4
c0 -3 -4 -8 -10 -11 -5 -3 -10 -1 -10 4 0 6 5 11 10 11 6 0 10 -2 10 -4z
m-1392 -135 c3 -8 -1 -12 -9 -9 -7 2 -15 10 -17 17 -3 8 1 12 9 9 7 -2 15 -10
17 -17z m1036 -73 c3 -13 1 -27 -4 -32 -5 -5 -5 -16 1 -28 11 -20 -4 -58 -22
-58 -22 0 -50 22 -45 36 4 9 -2 14 -16 14 -20 0 -20 1 -5 18 10 10 17 26 17
35 0 10 5 14 15 11 8 -4 17 1 21 10 9 23 31 20 38 -6z m-3144 -8 c0 -5 -4 -10
-10 -10 -5 0 -10 5 -10 10 0 6 5 10 10 10 6 0 10 -4 10 -10z m14 -46 c15 -6
24 -54 10 -54 -18 0 -44 24 -44 40 0 21 8 24 34 14z m24 -92 c4 -25 -13 -30
-22 -6 -9 25 -7 36 7 32 6 -3 13 -14 15 -26z m3034 12 c21 -8 32 -34 18 -48
-17 -17 -11 -27 10 -14 10 7 22 9 26 5 11 -11 -18 -39 -37 -34 -13 3 -16 0
-12 -12 4 -11 1 -10 -10 4 -21 26 -21 35 0 50 15 11 14 14 -10 30 -27 17 -38
42 -14 31 6 -3 20 -9 29 -12z m498 2 c0 -3 -4 -8 -10 -11 -5 -3 -10 -1 -10 4
0 6 5 11 10 11 6 0 10 -2 10 -4z m-3619 -44 c-6 -2 -11 -12 -11 -23 0 -20 -15
-26 -25 -9 -3 6 4 25 17 42 20 29 23 30 27 13 2 -10 -2 -21 -8 -23z m3564 30
c-5 -4 -16 -18 -24 -31 -11 -21 -11 -25 2 -32 11 -6 13 -17 7 -41 -3 -18 -11
-32 -17 -31 -14 3 -24 -35 -12 -43 14 -8 11 -34 -4 -34 -9 0 -14 -12 -15 -31
-1 -34 -23 -65 -53 -74 -11 -4 -17 -11 -13 -16 3 -6 0 -17 -8 -26 -11 -15 -11
-16 5 -10 11 4 17 2 17 -8 0 -8 -6 -12 -13 -9 -8 3 -22 -13 -36 -41 l-23 -46
-19 22 c-14 16 -16 26 -8 35 7 9 5 14 -8 17 -16 4 -15 6 5 12 12 4 22 11 22
16 0 5 8 5 18 2 15 -6 15 -5 3 10 -8 10 -16 15 -19 13 -5 -6 -62 55 -62 66 0
12 14 10 29 -4 11 -11 12 -8 7 13 -4 19 0 31 15 45 31 28 43 55 29 64 -8 5 -3
10 14 14 28 7 36 36 10 36 -8 0 -12 5 -9 10 5 8 11 7 20 0 16 -13 38 -4 33 12
-4 12 42 68 55 68 5 0 15 7 23 15 9 8 21 15 27 15 8 0 8 -3 2 -8z m63 -14 c-6
-17 -36 -34 -45 -24 -4 4 1 14 11 22 24 17 39 18 34 2z m-3634 -101 c6 -9 7
-19 3 -23 -9 -9 -37 15 -37 33 0 18 20 12 34 -10z m76 -11 c0 -3 -4 -8 -10
-11 -5 -3 -10 -1 -10 4 0 6 5 11 10 11 6 0 10 -2 10 -4z m-150 -46 c0 -5 -7
-10 -16 -10 -8 0 -12 5 -9 10 3 6 10 10 16 10 5 0 9 -4 9 -10z m28 -10 c-7
-10 -14 -18 -15 -16 -6 6 9 36 18 36 5 0 4 -9 -3 -20z m37 -28 c0 -18 -20 -15
-23 4 -3 10 1 15 10 12 7 -3 13 -10 13 -16z m-92 -5 c3 -8 -6 -27 -19 -43 -21
-25 -26 -27 -36 -14 -7 8 -20 15 -28 15 -8 0 -17 11 -18 25 -3 19 -1 22 10 13
14 -11 64 -26 54 -16 -7 7 12 33 24 33 4 0 10 -6 13 -13z m-193 -37 c0 -5 -5
-10 -11 -10 -5 0 -7 5 -4 10 3 6 8 10 11 10 2 0 4 -4 4 -10z m70 -30 c0 -5 -8
-10 -17 -10 -15 0 -16 2 -3 10 19 12 20 12 20 0z m116 -26 c8 3 21 3 29 0 11
-5 8 -14 -17 -45 -26 -32 -34 -37 -46 -26 -13 10 -15 9 -10 -5 4 -9 1 -24 -7
-34 -7 -10 -10 -25 -7 -34 5 -13 4 -13 -12 0 -16 13 -20 12 -31 -3 -7 -9 -18
-17 -24 -17 -8 0 -10 -8 -6 -20 6 -18 3 -19 -27 -13 -18 3 -34 10 -36 15 -6
14 -32 9 -32 -7 0 -8 6 -12 13 -10 6 3 18 -4 25 -15 13 -21 7 -25 -27 -20 -8
1 -11 -4 -8 -12 20 -49 20 -48 -7 -48 -20 0 -26 -5 -26 -21 0 -12 -9 -30 -21
-40 -21 -18 -19 -41 4 -35 7 1 9 1 5 -1 -5 -3 -8 -11 -8 -19 0 -8 -7 -17 -15
-20 -10 -4 -13 -13 -10 -25 4 -11 2 -19 -4 -19 -5 0 -12 -13 -16 -30 -4 -16
-11 -30 -16 -30 -5 0 -9 -8 -9 -18 0 -11 -11 -24 -25 -30 -15 -7 -25 -20 -25
-32 0 -22 -25 -28 -33 -7 -3 6 -6 2 -6 -9 -1 -17 -9 -23 -33 -27 -18 -2 -38
-1 -44 4 -14 11 -24 1 -24 -23 0 -11 -11 -23 -25 -28 -39 -15 -31 -32 13 -25
145 25 353 112 480 202 35 25 66 43 69 40 4 -5 -30 -62 -47 -77 -20 -19 -50
-72 -44 -81 3 -6 -4 -13 -16 -16 -19 -5 -21 -11 -17 -42 3 -20 8 -47 12 -60 6
-17 5 -22 -3 -17 -19 11 -27 -24 -10 -40 8 -9 24 -17 34 -19 10 -2 21 -4 23
-4 2 -1 -4 -9 -13 -20 -9 -10 -16 -22 -14 -27 2 -5 -7 -19 -20 -32 -12 -12
-20 -27 -17 -32 3 -5 -3 -18 -15 -30 -23 -23 -26 -40 -6 -40 8 0 17 -4 20 -8
9 -16 -6 -50 -24 -55 -14 -4 -17 -11 -13 -28 5 -18 3 -21 -10 -16 -11 4 -14 2
-10 -9 3 -8 -2 -23 -11 -33 -18 -19 -7 -39 14 -26 6 3 10 1 10 -4 0 -6 -4 -11
-8 -11 -5 0 -15 -11 -22 -25 -7 -14 -21 -25 -30 -25 -24 0 -32 -11 -19 -26 16
-19 1 -35 -25 -28 -22 5 -24 2 -31 -53 -5 -32 -8 -62 -7 -66 1 -4 -5 -22 -14
-40 -16 -31 -17 -31 -25 -9 -12 31 -31 28 -23 -3 6 -24 4 -25 -27 -18 l-34 6
19 -21 c19 -22 19 -22 0 -22 -11 0 -25 5 -32 12 -9 9 -12 7 -12 -9 0 -11 6
-23 14 -26 24 -9 7 -47 -20 -47 -31 0 -33 -35 -2 -43 20 -6 20 -7 -10 -35 -38
-35 -41 -59 -9 -72 l22 -9 -22 0 c-13 -1 -23 -5 -23 -11 0 -5 -9 -10 -21 -10
-16 0 -19 -4 -14 -17 4 -10 9 -27 12 -38 4 -19 4 -19 -11 -1 -16 20 -38 14
-30 -8 7 -18 -25 -56 -47 -56 -16 0 -29 -27 -29 -62 0 -20 26 -24 33 -5 2 6 8
9 12 4 14 -13 -28 -36 -56 -30 -16 3 -30 0 -34 -8 -6 -8 -4 -11 7 -7 8 4 21 2
29 -3 12 -8 12 -10 0 -18 -7 -5 -21 -7 -30 -4 -22 5 -58 -43 -38 -50 9 -3 9
-10 -1 -27 -12 -19 -12 -24 0 -31 11 -7 10 -11 -2 -19 -8 -5 -19 -9 -25 -9 -5
0 -4 3 3 6 19 7 14 23 -8 23 -14 0 -23 -11 -32 -42 -7 -24 -12 -49 -11 -55 0
-7 -4 -13 -10 -13 -14 0 -36 -31 -37 -52 0 -42 -63 -65 -75 -28 -4 11 -10 18
-15 15 -5 -3 -19 14 -30 37 -28 56 -43 82 -59 102 -7 9 -10 16 -6 16 5 0 1 8
-8 18 -9 10 -14 27 -11 38 3 11 -5 35 -20 57 -14 21 -26 42 -26 46 0 16 -28
33 -35 21 -9 -15 -25 -12 -25 5 0 8 7 15 15 15 13 0 9 11 -14 53 -16 28 -42
74 -56 100 -44 84 -210 299 -292 377 -45 43 -89 97 -103 125 -14 28 -34 63
-45 80 -55 83 -99 174 -109 226 -3 19 -35 87 -71 149 -68 118 -75 140 -50 140
8 0 15 -4 15 -9 0 -5 9 -7 20 -4 11 3 20 12 20 20 0 8 9 17 20 20 11 3 20 10
20 15 0 6 7 8 15 4 9 -3 15 0 15 9 0 8 -7 15 -15 15 -11 0 -15 12 -15 44 0 36
-4 45 -21 49 -15 4 -19 12 -17 34 2 19 -1 27 -10 25 -7 -1 -15 5 -18 13 -4 8
-12 15 -19 15 -8 0 -16 9 -20 19 -3 11 -24 39 -47 63 -48 50 -91 115 -86 129
3 10 24 -6 98 -76 34 -32 119 -98 201 -157 62 -44 317 -164 418 -197 52 -17
133 -38 180 -46 47 -8 97 -18 111 -21 42 -10 310 -5 372 7 36 7 58 17 58 25 0
16 -70 31 -79 16 -13 -22 -81 -13 -81 10 0 7 -10 2 -23 -10 -13 -12 -32 -22
-43 -21 -18 0 -17 1 2 11 21 10 51 58 36 58 -14 0 -13 60 0 60 8 1 6 6 -5 14
-9 7 -15 20 -12 27 3 8 -4 18 -17 24 -16 7 -24 20 -26 41 -3 26 0 31 20 30 32
-1 32 38 1 42 -13 2 -23 10 -23 18 0 11 4 12 19 4 23 -12 42 7 21 20 -19 12 6
66 33 74 18 5 20 8 7 16 -8 5 -25 10 -37 10 -12 0 -25 5 -28 11 -10 16 1 22
22 11 13 -8 24 -5 41 8 22 18 31 37 12 25 -5 -3 -17 -2 -26 3 -26 14 0 24 32
12 17 -7 31 -7 37 -1 11 11 39 3 32 -9 -8 -12 34 0 93 27 42 19 53 29 49 43
-6 22 38 34 90 24 35 -7 45 10 21 35 -11 10 -9 12 7 10 30 -4 65 10 65 27 0
15 16 23 87 44 46 14 73 9 73 -15 0 -11 4 -13 18 -6 25 14 56 24 65 23 4 -1 7
3 7 8 0 21 44 29 68 13 13 -8 30 -12 38 -9z m3338 -53 c8 -12 -21 -34 -33 -27
-6 4 -8 13 -4 21 6 17 29 20 37 6z m116 -111 c0 -5 -7 -10 -16 -10 -8 0 -12 5
-9 10 3 6 10 10 16 10 5 0 9 -4 9 -10z m25 -30 c3 -5 -3 -10 -14 -10 -12 0
-21 5 -21 10 0 6 6 10 14 10 8 0 18 -4 21 -10z m-5581 -156 c9 -20 15 -38 13
-41 -6 -6 -47 52 -47 66 0 23 17 10 34 -25z m5891 -20 c12 -9 16 -18 10 -22
-6 -4 -17 -20 -25 -35 -11 -22 -19 -27 -36 -23 -18 5 -21 2 -17 -13 6 -22 -14
-38 -30 -22 -15 15 11 61 34 61 10 0 20 4 23 9 9 13 -36 22 -51 9 -8 -6 -13
-7 -13 0 0 5 14 15 30 22 17 7 30 16 30 21 0 14 23 10 45 -7z m-3699 -51 c-10
-10 -19 5 -10 18 6 11 8 11 12 0 2 -7 1 -15 -2 -18z m-40 -35 c-10 -6 -20 -7
-24 -3 -9 8 20 25 31 18 5 -3 2 -10 -7 -15z m-1991 -140 c16 -30 29 -42 42
-40 17 2 17 2 0 -12 -17 -13 -17 -14 0 -21 10 -5 25 -7 32 -6 12 2 13 0 2 -13
-7 -8 -10 -20 -6 -25 4 -7 -2 -8 -17 -2 -25 9 -72 89 -83 141 -9 42 -1 36 30
-22z m1124 -10 c0 -7 -4 -22 -8 -32 -7 -19 -8 -18 -14 4 -3 13 -4 27 -1 32 8
12 24 10 23 -4z m-14 -69 c11 -16 2 -17 -25 -2 -24 12 -24 13 -3 13 12 0 25
-5 28 -11z m4715 -89 c0 -5 -4 -10 -10 -10 -5 0 -10 5 -10 10 0 6 5 10 10 10
6 0 10 -4 10 -10z m-2635 -80 c3 -5 1 -10 -4 -10 -6 0 -11 5 -11 10 0 6 2 10
4 10 3 0 8 -4 11 -10z m-1640 -730 c3 -5 2 -10 -4 -10 -5 0 -13 5 -16 10 -3 6
-2 10 4 10 5 0 13 -4 16 -10z m-825 -320 c0 -5 -5 -10 -11 -10 -5 0 -7 5 -4
10 3 6 8 10 11 10 2 0 4 -4 4 -10z m42 -45 c0 -5 -5 -11 -11 -13 -6 -2 -11 4
-11 13 0 9 5 15 11 13 6 -2 11 -8 11 -13z m59 -98 c-1 -12 -15 -9 -19 4 -3 6
1 10 8 8 6 -3 11 -8 11 -12z m29 -47 c0 -5 -5 -10 -11 -10 -5 0 -7 5 -4 10 3
6 8 10 11 10 2 0 4 -4 4 -10z m4009 -529 c12 -8 10 -24 -8 -101 -35 -149 -47
-292 -33 -417 33 -304 199 -765 479 -1327 168 -338 241 -522 257 -651 19 -154
13 -154 -23 -1 -33 137 -96 287 -258 612 -82 165 -166 337 -187 384 -21 47
-44 99 -52 115 -32 71 -115 302 -159 438 -113 359 -130 585 -64 865 12 50 24
92 28 92 3 0 12 -4 20 -9z m-6219 -416 c0 -8 -4 -15 -10 -15 -5 0 -10 -9 -10
-21 0 -11 -4 -18 -9 -14 -6 3 -6 17 1 35 10 31 28 41 28 15z m80 -4 c0 -4 -5
-23 -12 -42 l-12 -34 -7 30 c-5 18 -4 34 3 42 12 15 28 17 28 4z m204 -86 c-5
-12 -10 -13 -20 -4 -19 15 -18 19 6 19 13 0 18 -5 14 -15z m-119 -15 c-3 -5
-13 -10 -21 -10 -8 0 -12 5 -9 10 3 6 13 10 21 10 8 0 12 -4 9 -10z m105 -30
c0 -13 -20 -13 -40 0 -12 8 -9 10 13 10 15 0 27 -4 27 -10z m2459 -39 c9 -6
10 -11 2 -15 -15 -10 -53 3 -46 15 8 11 26 11 44 0z m51 -45 c0 -17 5 -37 12
-44 9 -9 9 -12 1 -12 -16 0 -19 8 -28 59 -5 31 -4 42 4 37 6 -4 11 -22 11 -40z
m-55 -156 c4 -6 -5 -10 -19 -10 -14 0 -26 5 -26 10 0 6 9 10 19 10 11 0 23 -4
26 -10z m3039 -480 c11 -67 17 -166 17 -270 0 -91 4 -194 9 -230 16 -115 21
-215 11 -205 -5 6 -20 78 -35 160 -14 83 -28 161 -31 175 -46 213 -52 337 -23
458 16 65 32 37 52 -88z m43 -762 c-3 -7 -5 -2 -5 12 0 14 2 19 5 13 2 -7 2
-19 0 -25z"/>
<path d="M3932 11663 c5 -26 38 -29 38 -4 0 15 -6 21 -21 21 -14 0 -19 -5 -17
-17z"/>
<path d="M4240 11619 c0 -11 5 -17 10 -14 6 3 10 13 10 21 0 8 -4 14 -10 14
-5 0 -10 -9 -10 -21z"/>
<path d="M4138 11593 c7 -3 16 -2 19 1 4 3 -2 6 -13 5 -11 0 -14 -3 -6 -6z"/>
<path d="M4278 11593 c7 -3 16 -2 19 1 4 3 -2 6 -13 5 -11 0 -14 -3 -6 -6z"/>
<path d="M3855 11580 c-3 -5 -1 -10 4 -10 6 0 11 5 11 10 0 6 -2 10 -4 10 -3
0 -8 -4 -11 -10z"/>
<path d="M4160 11484 c0 -8 5 -12 10 -9 6 3 10 10 10 16 0 5 -4 9 -10 9 -5 0
-10 -7 -10 -16z"/>
<path d="M3795 11430 c3 -5 10 -10 16 -10 5 0 9 5 9 10 0 6 -7 10 -16 10 -8 0
-12 -4 -9 -10z"/>
<path d="M3778 11376 c-22 -16 -23 -52 -3 -60 18 -6 30 16 21 39 -3 8 -1 15 4
15 6 0 10 5 10 10 0 13 -11 12 -32 -4z"/>
<path d="M3720 11370 c0 -5 7 -10 15 -10 8 0 15 5 15 10 0 6 -7 10 -15 10 -8
0 -15 -4 -15 -10z"/>
<path d="M4611 11354 c0 -11 3 -14 6 -6 3 7 2 16 -1 19 -3 4 -6 -2 -5 -13z"/>
<path d="M4500 11296 c0 -14 29 -31 38 -21 6 6 -18 35 -29 35 -5 0 -9 -6 -9
-14z"/>
<path d="M4481 11254 c0 -11 3 -14 6 -6 3 7 2 16 -1 19 -3 4 -6 -2 -5 -13z"/>
<path d="M3523 11153 c-25 -5 -30 -18 -10 -25 17 -6 79 16 71 25 -8 7 -24 7
-61 0z"/>
<path d="M3695 11147 c-7 -16 11 -67 23 -67 11 0 2 69 -9 76 -5 3 -12 -1 -14
-9z"/>
<path d="M3530 11110 c0 -5 5 -10 10 -10 6 0 10 5 10 10 0 6 -4 10 -10 10 -5
0 -10 -4 -10 -10z"/>
<path d="M3570 11104 c0 -5 7 -18 15 -28 8 -11 15 -16 15 -10 0 5 -7 18 -15
28 -8 11 -15 16 -15 10z"/>
<path d="M3480 11070 c0 -15 7 -20 25 -20 14 0 25 4 25 8 0 5 -11 14 -25 20
-22 10 -25 9 -25 -8z"/>
<path d="M3628 11028 c9 -9 15 -9 24 0 9 9 7 12 -12 12 -19 0 -21 -3 -12 -12z"/>
<path d="M3500 11010 c0 -5 5 -10 10 -10 6 0 10 5 10 10 0 6 -4 10 -10 10 -5
0 -10 -4 -10 -10z"/>
<path d="M5790 10940 c0 -5 9 -10 20 -10 11 0 20 5 20 10 0 6 -9 10 -20 10
-11 0 -20 -4 -20 -10z"/>
<path d="M3690 10931 c0 -6 5 -13 10 -16 6 -3 10 1 10 9 0 9 -4 16 -10 16 -5
0 -10 -4 -10 -9z"/>
<path d="M4120 10910 c0 -5 5 -10 10 -10 6 0 10 5 10 10 0 6 -4 10 -10 10 -5
0 -10 -4 -10 -10z"/>
<path d="M3697 10880 c-3 -11 -1 -20 4 -20 5 0 9 9 9 20 0 11 -2 20 -4 20 -2
0 -6 -9 -9 -20z"/>
<path d="M3941 10864 c0 -11 3 -14 6 -6 3 7 2 16 -1 19 -3 4 -6 -2 -5 -13z"/>
<path d="M4008 10873 c7 -3 16 -2 19 1 4 3 -2 6 -13 5 -11 0 -14 -3 -6 -6z"/>
<path d="M4075 10810 c-3 -5 -1 -10 4 -10 6 0 11 5 11 10 0 6 -2 10 -4 10 -3
0 -8 -4 -11 -10z"/>
<path d="M3906 10801 c-4 -5 -2 -12 3 -15 5 -4 12 -2 15 3 4 5 2 12 -3 15 -5
4 -12 2 -15 -3z"/>
<path d="M5385 10780 c-10 -17 12 -37 25 -24 8 8 6 15 -4 23 -10 9 -16 9 -21
1z"/>
<path d="M5890 10290 c0 -5 7 -7 15 -4 8 4 15 8 15 10 0 2 -7 4 -15 4 -8 0
-15 -4 -15 -10z"/>
<path d="M5163 9978 c-34 -16 -28 -28 7 -15 17 6 30 15 30 19 0 10 -10 9 -37
-4z"/>
<path d="M3792 9877 c-7 -8 -7 -18 -1 -27 8 -13 10 -13 19 0 12 19 12 27 1 34
-5 3 -13 0 -19 -7z"/>
<path d="M3830 9721 c0 -11 4 -21 9 -21 18 0 21 18 6 30 -13 10 -15 9 -15 -9z"/>
<path d="M3945 9249 c-10 -15 3 -25 16 -12 7 7 7 13 1 17 -6 3 -14 1 -17 -5z"/>
<path d="M3928 8873 c7 -3 16 -2 19 1 4 3 -2 6 -13 5 -11 0 -14 -3 -6 -6z"/>
<path d="M4326 8552 c-9 -15 -10 -91 -1 -99 4 -5 5 0 2 10 -4 9 -2 17 2 17 5
0 11 -5 13 -11 3 -9 9 -9 25 0 12 6 31 11 42 11 22 0 91 30 91 39 0 3 -14 14
-31 24 -32 18 -133 24 -143 9z"/>
<path d="M4995 8110 c3 -5 10 -10 16 -10 5 0 9 5 9 10 0 6 -7 10 -16 10 -8 0
-12 -4 -9 -10z"/>
<path d="M2886 10370 c-11 -3 -15 -9 -10 -13 10 -6 42 9 34 16 -3 3 -14 1 -24
-3z"/>
<path d="M6402 10083 c-9 -16 -25 -205 -23 -262 1 -13 -6 -32 -15 -42 -10 -11
-13 -25 -9 -39 4 -11 2 -27 -4 -34 -6 -7 -10 -30 -10 -52 2 -121 -33 -372 -65
-462 -8 -23 -28 -61 -44 -85 -26 -37 -52 -97 -52 -117 0 -13 39 -18 48 -6 5 6
12 28 16 49 4 20 11 37 16 37 6 0 10 7 10 16 0 9 7 28 14 42 35 64 57 140 72
242 4 25 10 50 14 55 4 6 23 55 41 110 32 99 33 103 34 300 1 110 0 215 -3
233 -5 35 -26 43 -40 15z"/>
<path d="M6160 8915 c0 -8 5 -15 10 -15 6 0 10 7 10 15 0 8 -4 15 -10 15 -5 0
-10 -7 -10 -15z"/>
<path d="M6115 8880 c-3 -5 -1 -10 4 -10 6 0 11 5 11 10 0 6 -2 10 -4 10 -3 0
-8 -4 -11 -10z"/>
<path d="M4016 7695 c-3 -8 -1 -15 4 -15 6 0 10 7 10 15 0 8 -2 15 -4 15 -2 0
-6 -7 -10 -15z"/>
<path d="M4085 7610 c-3 -5 1 -10 10 -10 9 0 13 5 10 10 -3 6 -8 10 -10 10 -2
0 -7 -4 -10 -10z"/>
<path d="M4305 7200 c-8 -13 15 -24 27 -12 6 6 4 11 -6 15 -8 3 -18 2 -21 -3z"/>
<path d="M4370 7176 c0 -9 5 -16 10 -16 6 0 10 4 10 9 0 6 -4 13 -10 16 -5 3
-10 -1 -10 -9z"/>
<path d="M4400 7144 c0 -8 5 -12 10 -9 6 3 10 10 10 16 0 5 -4 9 -10 9 -5 0
-10 -7 -10 -16z"/>
<path d="M4547 7123 c-4 -3 -7 -14 -7 -24 0 -9 -6 -20 -12 -22 -10 -4 -10 -6
-1 -6 7 -1 19 13 28 29 14 27 9 41 -8 23z"/>
<path d="M4276 7112 c-3 -6 -1 -14 5 -17 15 -10 25 3 12 16 -7 7 -13 7 -17 1z"/>
<path d="M4394 7088 c-4 -7 -3 -8 5 -4 6 4 14 0 17 -8 7 -18 24 -11 24 10 0
17 -36 19 -46 2z"/>
<path d="M4468 7048 c-3 -7 1 -19 8 -26 11 -10 14 -10 14 0 0 7 -4 19 -9 26
-7 11 -9 11 -13 0z"/>
<path d="M8458 7273 c7 -3 16 -2 19 1 4 3 -2 6 -13 5 -11 0 -14 -3 -6 -6z"/>
<path d="M8335 6740 c3 -5 10 -10 16 -10 5 0 9 5 9 10 0 6 -7 10 -16 10 -8 0
-12 -4 -9 -10z"/>
<path d="M8600 6440 c0 -5 5 -10 10 -10 6 0 10 5 10 10 0 6 -4 10 -10 10 -5 0
-10 -4 -10 -10z"/>
<path d="M8660 6430 c0 -5 5 -10 10 -10 6 0 10 5 10 10 0 6 -4 10 -10 10 -5 0
-10 -4 -10 -10z"/>
<path d="M8652 6388 c-16 -16 -15 -28 3 -28 8 0 15 9 15 20 0 23 -2 24 -18 8z"/>
<path d="M8598 6335 c-6 -27 1 -32 20 -13 16 16 15 38 -2 38 -7 0 -16 -11 -18
-25z"/>
<path d="M4366 6071 c-4 -7 -5 -15 -2 -18 9 -9 19 4 14 18 -4 11 -6 11 -12 0z"/>
<path d="M4450 6065 c0 -8 4 -15 10 -15 5 0 7 7 4 15 -4 8 -8 15 -10 15 -2 0
-4 -7 -4 -15z"/>
<path d="M4285 5990 c3 -5 8 -10 11 -10 2 0 4 5 4 10 0 6 -5 10 -11 10 -5 0
-7 -4 -4 -10z"/>
<path d="M4701 5814 c-17 -13 -20 -19 -10 -30 17 -21 26 -17 33 12 9 34 5 37
-23 18z"/>
<path d="M4340 5640 c0 -5 7 -10 15 -10 8 0 15 5 15 10 0 6 -7 10 -15 10 -8 0
-15 -4 -15 -10z"/>
<path d="M4831 5121 c-10 -17 -9 -21 3 -21 20 0 27 13 16 29 -6 11 -10 9 -19
-8z"/>
<path d="M4500 4570 c0 -5 5 -10 10 -10 6 0 10 5 10 10 0 6 -4 10 -10 10 -5 0
-10 -4 -10 -10z"/>
<path d="M4481 4524 c0 -11 3 -14 6 -6 3 7 2 16 -1 19 -3 4 -6 -2 -5 -13z"/>
<path d="M4177 4014 c-8 -8 1 -24 14 -24 5 0 9 7 9 15 0 15 -12 20 -23 9z"/>
<path d="M8940 10677 c0 -14 5 -29 10 -32 7 -4 8 3 4 22 -9 38 -14 42 -14 10z"/>
<path d="M8475 10410 c-4 -12 -5 -24 -2 -27 3 -2 8 5 12 17 4 12 5 24 2 27 -3
2 -8 -5 -12 -17z"/>
<path d="M8839 10104 c-12 -32 -10 -34 19 -23 13 5 22 17 22 29 0 29 -29 25
-41 -6z"/>
<path d="M8785 10090 c-3 -5 -1 -10 4 -10 6 0 11 5 11 10 0 6 -2 10 -4 10 -3
0 -8 -4 -11 -10z"/>
<path d="M8860 9650 c0 -5 5 -10 10 -10 6 0 10 5 10 10 0 6 -4 10 -10 10 -5 0
-10 -4 -10 -10z"/>
<path d="M8891 9612 c-7 -13 -11 -26 -8 -28 8 -8 29 25 25 38 -3 8 -9 4 -17
-10z"/>
<path d="M8783 9489 c-25 -9 -31 -39 -8 -39 13 0 41 38 33 45 -2 1 -13 -1 -25
-6z"/>
<path d="M8832 9457 c-28 -30 -28 -43 1 -51 41 -11 49 -8 37 15 -9 16 -14 18
-26 8 -20 -16 -18 5 2 26 9 9 14 18 12 20 -3 3 -14 -5 -26 -18z"/>
<path d="M8930 9426 c0 -9 5 -16 10 -16 6 0 10 4 10 9 0 6 -4 13 -10 16 -5 3
-10 -1 -10 -9z"/>
<path d="M8875 9379 c-4 -6 -5 -12 -2 -15 2 -3 7 2 10 11 7 17 1 20 -8 4z"/>
<path d="M8907 9384 c-8 -8 1 -24 14 -24 5 0 9 7 9 15 0 15 -12 20 -23 9z"/>
<path d="M8747 9353 c-4 -3 -7 -11 -7 -17 0 -6 5 -5 12 2 6 6 9 14 7 17 -3 3
-9 2 -12 -2z"/>
<path d="M8850 9346 c0 -8 5 -18 10 -21 6 -3 10 1 10 9 0 8 -4 18 -10 21 -5 3
-10 -1 -10 -9z"/>
<path d="M8866 9173 c-3 -8 -2 -22 4 -31 5 -10 10 -12 10 -4 0 6 12 12 26 12
21 0 24 3 15 14 -17 21 -49 26 -55 9z"/>
<path d="M8968 9143 c6 -2 18 -2 25 0 6 3 1 5 -13 5 -14 0 -19 -2 -12 -5z"/>
<path d="M8871 9074 c0 -11 3 -14 6 -6 3 7 2 16 -1 19 -3 4 -6 -2 -5 -13z"/>
<path d="M8784 9026 c-18 -14 -18 -15 6 -24 28 -11 46 -1 37 22 -8 20 -18 20
-43 2z"/>
<path d="M8918 8963 c7 -3 16 -2 19 1 4 3 -2 6 -13 5 -11 0 -14 -3 -6 -6z"/>
<path d="M8820 8935 c0 -9 5 -15 11 -13 6 2 11 8 11 13 0 5 -5 11 -11 13 -6 2
-11 -4 -11 -13z"/>
<path d="M8925 8700 c-3 -5 -1 -10 4 -10 6 0 11 5 11 10 0 6 -2 10 -4 10 -3 0
-8 -4 -11 -10z"/>
<path d="M8925 8631 c-3 -5 -1 -12 5 -16 5 -3 10 1 10 9 0 18 -6 21 -15 7z"/>
<path d="M8978 8603 c-24 -6 -23 -23 2 -23 11 0 20 7 20 15 0 8 -1 14 -2 14
-2 -1 -11 -3 -20 -6z"/>
<path d="M8870 8344 c0 -12 7 -27 15 -34 19 -16 19 -3 0 30 -13 24 -14 24 -15
4z"/>
<path d="M8892 8278 c-15 -15 -16 -38 -2 -38 12 0 23 25 18 40 -2 7 -7 7 -16
-2z"/>
<path d="M8880 8215 c0 -8 5 -15 10 -15 6 0 10 7 10 15 0 8 -4 15 -10 15 -5 0
-10 -7 -10 -15z"/>
<path d="M8866 8161 c-4 -7 -5 -15 -2 -18 9 -9 19 4 14 18 -4 11 -6 11 -12 0z"/>
<path d="M8895 8121 c-6 -11 9 -23 19 -14 9 9 7 23 -3 23 -6 0 -12 -4 -16 -9z"/>
<path d="M8985 7990 c3 -5 8 -10 11 -10 2 0 4 5 4 10 0 6 -5 10 -11 10 -5 0
-7 -4 -4 -10z"/>
<path d="M8875 7757 c-8 -40 -1 -57 22 -57 12 0 14 7 8 38 -9 53 -22 61 -30
19z"/>
<path d="M8920 7781 c0 -20 30 -33 57 -25 26 7 27 8 6 11 -13 3 -23 9 -23 14
0 5 -9 9 -20 9 -11 0 -20 -4 -20 -9z"/>
<path d="M8930 7619 c0 -5 5 -7 10 -4 6 3 10 8 10 11 0 2 -4 4 -10 4 -5 0 -10
-5 -10 -11z"/>
<path d="M8620 7411 c0 -6 5 -13 10 -16 6 -3 10 1 10 9 0 9 -4 16 -10 16 -5 0
-10 -4 -10 -9z"/>
<path d="M8920 7397 c0 -8 9 -17 21 -20 15 -4 19 -1 17 11 -4 21 -38 29 -38 9z"/>
<path d="M8869 7351 l-24 -20 38 -1 c31 0 38 3 35 17 -5 25 -22 26 -49 4z"/>
<path d="M8929 7327 c0 -1 -2 -21 -4 -45 -2 -33 1 -44 16 -53 22 -12 25 1 7
31 -10 15 -10 22 0 32 6 6 12 15 12 19 0 6 -29 21 -31 16z"/>
<path d="M8837 7314 c-8 -8 1 -24 14 -24 5 0 9 7 9 15 0 15 -12 20 -23 9z"/>
<path d="M8850 7280 c-24 -6 -24 -7 8 -11 17 -3 32 -2 32 2 0 13 -14 16 -40 9z"/>
</g>
</svg>
